<svg width="786" height="1066" viewBox="0 0 786 1066" fill="none" xmlns="http://www.w3.org/2000/svg">
<path d="M364.4 0.756226C255.6 12.2229 161.6 96.3562 140.8 200.89C135.867 225.956 135.333 235.956 135.333 309.69V382.09H91.7333C58.9333 382.09 46.2667 382.623 41.2 383.956C24.8 388.356 11.7333 399.29 4.26667 415.156L0 424.09V723.423V1022.76L3.06667 1030.49C8.93333 1044.89 20.5333 1056.36 35.8667 1062.62L42.6667 1065.42L388 1065.82C631.067 1066.09 735.333 1065.69 740.267 1064.62C762.933 1059.96 781.067 1041.16 784.667 1018.49C785.467 1013.82 786 899.156 786 722.756C786 405.423 786.4 423.556 777.733 409.023C769.867 395.956 756.667 386.89 740.933 383.556C736.667 382.623 717.867 382.09 692.667 382.09H651.333L651.2 375.69C651.2 372.223 650.667 336.756 650 296.756C649.067 239.29 648.4 221.69 646.8 212.756C637.6 164.223 620.133 126.623 590.667 91.6895C549.733 43.1562 496.933 12.8896 436 2.75623C421.2 0.222892 380.133 -0.843774 364.4 0.756226ZM422.533 85.5562C453.333 90.3562 484.133 105.29 510 127.823C541.333 155.156 562 194.756 567.333 238.09C568.8 250.223 569.2 363.423 567.867 375.156L566.933 382.09L392.133 381.823L217.333 381.423V308.756C217.333 237.556 217.333 235.823 220.4 222.09C233.2 164.89 271.733 118.89 326.4 95.8229C355.733 83.5562 387.2 80.0895 422.533 85.5562ZM228 521.423V548.09L218.933 547.823C203.067 547.556 194.267 551.556 189.867 561.29C187.6 566.356 187.333 570.89 187.333 615.69C187.333 642.623 186.667 669.289 185.867 675.023C183.2 695.556 172.4 710.889 155.333 719.023C150.933 721.156 147.467 723.689 147.467 724.756C147.467 725.956 151.067 728.49 155.733 730.623C160.533 733.023 167.067 737.69 171.467 741.956C185.067 755.69 187.2 768.49 187.333 838.756C187.333 863.423 187.867 884.89 188.667 887.423C190.133 892.89 196.8 899.956 202.4 901.956C204.533 902.756 211.2 903.423 217.467 903.423H228.667V929.423V955.423H210.667C191.867 955.423 183.333 954.223 171.6 949.956C156 944.356 140.267 930.49 133.6 916.756C126.533 901.823 125.733 893.69 126.133 830.09C126.4 778.223 126.267 771.69 124.267 767.823C121.467 762.623 117.067 759.156 107.2 754.49L99.4667 750.756V725.956L99.3333 701.023L103.067 700.09C110.133 698.356 122.8 688.756 124.933 683.423C125.867 681.29 126.267 658.89 126.133 621.423C125.733 555.156 126.4 548.623 134.933 532.356C143.867 515.29 164.267 500.756 185.333 496.223C191.333 495.023 200.667 494.356 211.333 494.49L228 494.756V521.423ZM604 497.289C624.933 503.156 643.6 517.69 651.333 534.356C658.933 550.623 659.6 557.556 659.067 622.756C658.667 675.689 658.933 681.823 660.933 685.556C663.067 689.423 675.067 697.823 682.4 700.623L686 702.09V726.623V751.156L682.4 752.09C675.067 753.69 664.4 761.289 661.467 766.756C658.8 771.956 658.667 773.823 658.667 832.756C658.667 898.89 658.533 900.756 650.933 916.756C642.667 934.223 623.2 948.756 601.733 953.29C596.4 954.49 584.4 955.556 574.933 955.69L558 956.09V929.69V903.423H569.467C582.933 903.423 589.6 900.623 594.4 892.756C597.333 888.223 597.333 886.756 598.133 830.09C599.067 768.623 599.333 765.823 606 752.889C610.133 744.623 620.533 735.023 629.867 730.49C634.4 728.49 637.867 725.823 637.867 724.756C638 723.556 634.933 721.423 630.933 719.69C622.133 715.956 611.067 706.356 606.667 699.023C599.333 686.356 598.933 682.223 598.8 622.09C598.667 567.556 598.667 566.623 595.733 561.156C590.4 551.29 584.267 548.49 567.867 548.356L558 548.223V521.023V493.69L577.067 494.49C588.4 494.89 599.2 495.956 604 497.289ZM417.467 527.556C433.6 532.49 444.267 539.023 456.8 551.423C466.533 561.023 469.333 564.89 474.4 575.423C482.133 591.29 484.667 601.823 484.667 618.89C484.667 645.556 476.8 664.756 458 683.423C451.733 689.69 444.667 695.689 442.4 696.623C439.733 697.689 438 699.423 438 700.756C438 702.889 447.733 754.89 470.4 872.756C475.2 897.29 478.933 917.556 478.667 917.823C478.533 917.956 440 917.956 393.067 917.823L307.733 917.423L314.133 882.756C317.6 863.69 326.267 816.623 333.2 778.09C340.267 739.556 346.4 706.223 346.8 703.956C347.467 699.956 347.067 699.29 339.6 694.356C323.733 683.556 309.867 663.956 303.867 644.09C300 631.556 300.4 604.356 304.4 592.223C316.8 555.156 344.533 530.223 379.867 524.623C390 523.023 407.2 524.356 417.467 527.556Z" fill="#3DB8F9"/>
</svg>
